<svg width="40" height="49" viewBox="0 0 40 49" fill="none" xmlns="http://www.w3.org/2000/svg">
<g filter="url(#filter0_d_37_613)">
<path opacity="0.4" d="M22.2667 0C23.1252 0 23.8376 0.765463 23.8376 1.73236V38.5753C23.8376 39.5221 23.1435 40.3077 22.2667 40.3077C11.5076 40.3077 4 32.0286 4 20.1639C4 8.29924 11.5259 0 22.2667 0Z" fill="white"/>
<path d="M35.6028 19.2169L30.4151 13.476C29.8853 12.8918 29.0085 12.8918 28.4788 13.476C27.9491 14.0601 27.9491 15.027 28.4788 15.6112L31.3284 18.7536H13.8471C13.0981 18.7536 12.4771 19.4385 12.4771 20.2644C12.4771 21.0903 13.0981 21.7752 13.8471 21.7752H31.3284L28.4788 24.9176C27.9491 25.5018 27.9491 26.4687 28.4788 27.0529C28.7528 27.355 29.0999 27.496 29.4469 27.496C29.794 27.496 30.1411 27.355 30.4151 27.0529L35.6028 21.3119C36.1326 20.7479 36.1326 19.8011 35.6028 19.2169Z" fill="white"/>
</g>
<defs>
<filter id="filter0_d_37_613" x="0" y="0" width="40" height="48.3077" filterUnits="userSpaceOnUse" color-interpolation-filters="sRGB">
<feFlood flood-opacity="0" result="BackgroundImageFix"/>
<feColorMatrix in="SourceAlpha" type="matrix" values="0 0 0 0 0 0 0 0 0 0 0 0 0 0 0 0 0 0 127 0" result="hardAlpha"/>
<feOffset dy="4"/>
<feGaussianBlur stdDeviation="2"/>
<feComposite in2="hardAlpha" operator="out"/>
<feColorMatrix type="matrix" values="0 0 0 0 0 0 0 0 0 0 0 0 0 0 0 0 0 0 0.25 0"/>
<feBlend mode="normal" in2="BackgroundImageFix" result="effect1_dropShadow_37_613"/>
<feBlend mode="normal" in="SourceGraphic" in2="effect1_dropShadow_37_613" result="shape"/>
</filter>
</defs>
</svg>
